<svg xmlns="http://www.w3.org/2000/svg" width="60" height="60" viewBox="0 0 60 60">
  <path d="M30,10 C33,3 41,3 45,8 C48,5 52,5 55,8 C58,11 58,15 55,18 C50,23 45,35 45,42 C45,47 42,52 38,55 C35,57 32,55 30,54 C28,55 25,57 22,55 C18,52 15,47 15,42 C15,35 10,23 5,18 C2,15 2,11 5,8 C8,5 12,5 15,8 C19,3 27,3 30,10 Z" fill="#e41c1c" />
  <path d="M30,10 C33,5 38,10 38,15 C38,18 35,20 30,20 C25,20 22,18 22,15 C22,10 27,5 30,10 Z" fill="#4CAF50" />
  <path d="M28,18 L32,18 L32,23 L28,23 Z" fill="#795548" />
</svg>