<svg xmlns="http://www.w3.org/2000/svg" width="60" height="60" viewBox="0 0 60 60">
  <path d="M15,10 C10,10 5,15 5,20 C5,25 10,40 15,45 C20,50 25,55 35,55 C45,55 50,50 55,45 C55,35 50,30 45,25 C40,20 35,15 30,15 C25,15 20,10 15,10 Z" fill="#FFE135" />
  <path d="M15,10 C20,10 25,15 25,20 C25,25 20,30 15,30 C10,30 5,25 5,20 C5,15 10,10 15,10 Z" fill="#FFE135" />
  <path d="M20,23 C25,28 30,33 35,33 C40,33 45,28 45,23 M20,28 C25,33 30,38 40,38 M25,43 C30,43 35,43 40,43" stroke="#BE8F00" stroke-width="1" fill="none" />
  <path d="M15,10 C20,5 25,5 30,10" stroke="#BE8F00" stroke-width="2" fill="none" />
</svg>