<svg xmlns="http://www.w3.org/2000/svg" width="40" height="40" viewBox="0 0 40 40">
  <path d="M10,6.67 C6.67,6.67 3.33,10 3.33,13.33 C3.33,16.67 6.67,26.67 10,30 C10,30 0,20 0,13.33 C0,6.67 6.67,3.33 10,6.67 Z" fill="#FFE135" />
  <path d="M10,6.67 C13.33,6.67 16.67,10 16.67,13.33 C16.67,16.67 13.33,20 10,20 C6.67,20 3.33,16.67 3.33,13.33 C3.33,10 6.67,6.67 10,6.67 Z" fill="#FFE135" />
  <path d="M6.67,15.33 C10,18.67 13.33,22 16.67,22 C20,22 23.33,18.67 23.33,15.33 M6.67,18.67 C10,22 13.33,25.33 20,25.33 M10,28.67 C13.33,28.67 16.67,28.67 20,28.67" stroke="#BE8F00" stroke-width="0.67" fill="none" />
  <path d="M10,6.67 C13.33,3.33 16.67,3.33 20,6.67" stroke="#BE8F00" stroke-width="1.33" fill="none" />
</svg>