<svg xmlns="http://www.w3.org/2000/svg" width="40" height="40" viewBox="0 0 40 40">
  <path d="M10,6.67 C6.67,6.67 3.33,10 3.33,13.33 C3.33,16.67 6.67,26.67 10,30 C13.33,33.33 16.67,36.67 23.33,36.67 C30,36.67 33.33,33.33 36.67,30 C36.67,23.33 33.33,20 30,16.67 C26.67,13.33 23.33,10 20,10 C16.67,10 13.33,6.67 10,6.67 Z" fill="#FFE135" />
  <path d="M13.33,15.33 C16.67,18.67 20,22 23.33,22 C26.67,22 30,18.67 30,15.33 M13.33,18.67 C16.67,22 20,25.33 26.67,25.33 M16.67,28.67 C20,28.67 23.33,28.67 26.67,28.67" stroke="#BE8F00" stroke-width="0.67" fill="none" />
  <path d="M20,6.67 C23.33,3.33 26.67,3.33 30,6.67" stroke="#BE8F00" stroke-width="1.33" fill="none" />
</svg>