<svg xmlns="http://www.w3.org/2000/svg" width="40" height="40" viewBox="0 0 40 40">
  <path d="M20,6.67 C16.67,6.67 13.33,10 13.33,13.33 L13.33,33.33 C13.33,36.67 16.67,36.67 20,36.67 Z" fill="#FEEA3B" />
  <path d="M20,3.33 C18.67,3.33 16.67,4.67 16.67,6.67 L20,6.67 Z" fill="#4CAF50" />
  <path d="M15.33,10 L20,10 M15.33,13.33 L20,13.33 M15.33,16.67 L20,16.67 M15.33,20 L20,20 M15.33,23.33 L20,23.33 M15.33,26.67 L20,26.67 M15.33,30 L20,30 M15.33,33.33 L20,33.33" stroke="#C1940A" stroke-width="0.67" />
  <path d="M16.67,8 L16.67,35.33 M20,8 L20,35.33" stroke="#C1940A" stroke-width="0.67" />
</svg>