<svg xmlns="http://www.w3.org/2000/svg" width="60" height="60" viewBox="0 0 60 60">
  <path d="M30,10 C25,10 20,15 20,20 L20,50 C20,55 25,55 30,55 C35,55 40,55 40,50 L40,20 C40,15 35,10 30,10 Z" fill="#FEEA3B" />
  <path d="M30,5 C28,5 25,7 25,10 L35,10 C35,7 32,5 30,5 Z" fill="#4CAF50" />
  <path d="M23,15 L37,15 M23,20 L37,20 M23,25 L37,25 M23,30 L37,30 M23,35 L37,35 M23,40 L37,40 M23,45 L37,45 M23,50 L37,50" stroke="#C1940A" stroke-width="1" />
  <path d="M25,12 L25,53 M30,12 L30,53 M35,12 L35,53" stroke="#C1940A" stroke-width="1" />
</svg>