<svg xmlns="http://www.w3.org/2000/svg" width="40" height="40" viewBox="0 0 40 40">
  <path d="M20,6.67 C23.33,6.67 26.67,10 26.67,13.33 L26.67,33.33 C26.67,36.67 23.33,36.67 20,36.67 Z" fill="#FEEA3B" />
  <path d="M20,3.33 C21.33,3.33 23.33,4.67 23.33,6.67 L20,6.67 Z" fill="#4CAF50" />
  <path d="M20,10 L24.67,10 M20,13.33 L24.67,13.33 M20,16.67 L24.67,16.67 M20,20 L24.67,20 M20,23.33 L24.67,23.33 M20,26.67 L24.67,26.67 M20,30 L24.67,30 M20,33.33 L24.67,33.33" stroke="#C1940A" stroke-width="0.67" />
  <path d="M20,8 L20,35.33 M23.33,8 L23.33,35.33" stroke="#C1940A" stroke-width="0.67" />
</svg>